<?xml version="1.0" encoding="UTF-8"?>
<svg version="1.1" xmlns="http://www.w3.org/2000/svg" width="1024" height="1024">
<path d="M0 0 C337.92 0 675.84 0 1024 0 C1024 337.92 1024 675.84 1024 1024 C686.08 1024 348.16 1024 0 1024 C0 686.08 0 348.16 0 0 Z " fill="#ADE098" transform="translate(0,0)"/>
<path d="M0 0 C1.44758225 -0.00258758 2.89516379 -0.00560182 4.34274435 -0.0090034 C8.30294737 -0.01703063 12.26313223 -0.01886057 16.22334242 -0.01960087 C20.50167286 -0.02145892 24.77999405 -0.02901002 29.05831909 -0.03573608 C38.40573563 -0.04928965 47.75314786 -0.05533952 57.10057259 -0.05974674 C62.94332596 -0.06251429 68.78607769 -0.06675258 74.62882996 -0.07125092 C90.82338609 -0.08343986 107.01794091 -0.0937398 123.21250153 -0.09712601 C124.24800804 -0.09734557 125.28351456 -0.09756514 126.35040006 -0.09779136 C127.38830604 -0.09800964 128.42621203 -0.09822791 129.49556971 -0.09845281 C131.59856828 -0.09889626 133.70156686 -0.09934283 135.80456543 -0.09979248 C136.84771304 -0.10001391 137.89086065 -0.10023534 138.96561879 -0.10046348 C155.85708212 -0.10440901 172.74850225 -0.12185724 189.6399489 -0.145152 C207.00521819 -0.1689058 224.37046584 -0.18132969 241.73575163 -0.18249393 C251.47636997 -0.18340844 261.21693202 -0.18910422 270.95753479 -0.20731354 C279.25393891 -0.22276901 287.55026932 -0.22780302 295.84668511 -0.21957543 C300.07361546 -0.21568809 304.30039763 -0.21650396 308.52730942 -0.23063278 C340.86829312 -0.33261262 340.86829312 -0.33261262 354.66882324 3.14044189 C355.94341274 3.42842463 355.94341274 3.42842463 357.24375153 3.72222519 C389.06439961 11.27507229 416.42091187 32.52215258 433.47546387 60.13751221 C447.46499081 83.61747928 451.13533329 107.20176121 451.05700684 134.16729736 C451.06108053 136.54288981 451.06642685 138.91848036 451.07293701 141.29406738 C451.08652298 147.69913878 451.08134777 154.10406393 451.07179976 160.50913763 C451.06724509 164.5214145 451.06748413 168.53365605 451.07027054 172.54593277 C451.07073024 173.21533185 451.07118994 173.88473093 451.07166357 174.57441483 C451.0726229 175.93498786 451.07359554 177.29556089 451.07458134 178.65613391 C451.08310475 191.36886996 451.07334994 204.08154077 451.05718024 216.79426612 C451.04378601 227.66050451 451.0461037 238.52664666 451.05993652 249.3928833 C451.07605724 262.06197664 451.08227462 274.73101297 451.07309973 287.40011513 C451.07214426 288.75584991 451.07120114 290.11158469 451.07027054 291.46731949 C451.06980771 292.13407407 451.06934489 292.80082866 451.06886803 293.48778792 C451.06629706 298.1463304 451.07075783 302.80483523 451.0777092 307.46337509 C451.0864441 313.75579344 451.08023894 320.04803206 451.06302643 326.34043121 C451.05909584 328.63519367 451.06013594 330.92997153 451.06681442 333.22472763 C451.11208736 350.37629962 450.33100541 367.35279928 444.60632324 383.70294189 C444.30887207 384.56733887 444.0114209 385.43173584 443.70495605 386.32232666 C432.95097668 416.16871357 410.304539 440.73791311 381.64733887 454.26153564 C364.50626782 461.8760292 347.16238064 465.30889195 328.45983887 465.25396729 C327.1516922 465.25411331 325.84354553 465.25425934 324.49575806 465.25440979 C320.93021585 465.25469525 317.36470769 465.24883932 313.79917336 465.24183583 C310.0649292 465.23556029 306.33068416 465.23499518 302.59643555 465.23381042 C295.53475061 465.23070946 288.47308127 465.22251278 281.41140318 465.21246094 C273.36784202 465.20126138 265.3242801 465.19577968 257.28071308 465.1907655 C240.74340736 465.18032908 224.2061173 465.16275364 207.66882324 465.14044189 C207.75033316 464.49290388 207.83184307 463.84536587 207.91582298 463.17820549 C209.47533434 450.77742402 211.01889429 438.3761636 212.45788574 425.96075439 C212.76240322 423.35917199 213.06709513 420.75760999 213.37194824 418.15606689 C213.83886726 414.16440604 214.30487723 410.17264685 214.76745605 406.18048096 C215.2227395 402.25259735 215.68397826 398.32542346 216.14538574 394.39825439 C216.28392975 393.19331329 216.42247375 391.98837219 216.56521606 390.74691772 C216.69560272 389.64330902 216.82598938 388.53970032 216.96032715 387.40264893 C217.12995468 385.94570114 217.12995468 385.94570114 217.30300903 384.45932007 C217.66882324 382.14044189 217.66882324 382.14044189 218.66882324 380.14044189 C218.00882324 380.14044189 217.34882324 380.14044189 216.66882324 380.14044189 C216.26276855 380.96802002 216.26276855 380.96802002 215.84851074 381.81231689 C215.03231343 383.42309039 214.18072209 385.01623481 213.30163574 386.59356689 C200.75463653 409.86727528 201.18729658 439.95570849 198.66882324 465.14044189 C134.97882324 465.14044189 71.28882324 465.14044189 5.66882324 465.14044189 C6.91365602 457.67144526 8.09500486 450.78883018 10.29382324 443.64044189 C10.55034668 442.79876465 10.80687012 441.9570874 11.07116699 441.08990479 C15.28979067 427.61305161 20.33472813 414.2528111 27.66882324 402.14044189 C23.88713179 400.24959617 19.77921182 400.53907283 15.66882324 401.14044189 C7.23202925 404.83899603 2.74152683 416.38473866 -0.73742676 424.36700439 C-5.51537946 437.44511853 -7.67913786 451.5039353 -10.33117676 465.14044189 C-39.30668452 465.76494553 -67.89251911 452.58694063 -88.58898926 432.78497314 C-89.94637207 431.47593018 -89.94637207 431.47593018 -91.33117676 430.14044189 C-92.05047363 429.48430908 -92.76977051 428.82817627 -93.51086426 428.15216064 C-113.18440962 409.70327373 -125.39648758 380.24656345 -126.69706345 353.51270294 C-126.88207819 347.19111033 -126.85012987 340.87117765 -126.8170166 334.54766846 C-126.81916765 332.13573501 -126.82305302 329.72380259 -126.82852173 327.31187439 C-126.83714282 321.48933522 -126.82745198 315.66704665 -126.80882113 309.84453544 C-126.78785368 303.04258782 -126.78819871 296.24068749 -126.78916629 289.43871364 C-126.79016321 277.2928549 -126.77195983 265.14710223 -126.74279785 253.00128174 C-126.71460686 241.25354075 -126.70045777 229.50589296 -126.70178223 217.75811768 C-126.70186214 217.03380256 -126.70194205 216.30948745 -126.70202439 215.56322339 C-126.70210509 214.84007686 -126.7021858 214.11693034 -126.70226896 213.37187028 C-126.7036532 199.93696619 -126.69184586 186.50210116 -126.67396253 173.0672098 C-126.66796496 168.34115381 -126.66580764 163.61510508 -126.66489792 158.88904572 C-126.66287822 152.51620082 -126.65058096 146.14345239 -126.63056564 139.77063942 C-126.62476092 137.44194696 -126.62225564 135.11324339 -126.62342072 132.78454399 C-126.63541255 94.20088613 -116.37391926 63.01563962 -89.20617676 34.64044189 C-64.99837991 11.03868168 -33.45076139 -0.02404464 0 0 Z " fill="#68BE4D" transform="translate(350.3311767578125,191.85955810546875)"/>
<path d="M0 0 C10.59371788 0.34733501 18.88946402 5.19004959 26.55859375 12.3515625 C31.62321749 17.84566633 36.00057971 23.90311363 40.44384766 29.90185547 C54.78519021 49.23814319 69.15086244 65.70219216 89.15234375 79.30859375 C99.89709924 86.69129772 99.89709924 86.69129772 102 93 C103.45889807 103.93272996 100.20011367 115.226525 93.6796875 124.06640625 C87.01769966 131.73543876 78.94292879 134.4841123 68.89871216 135.23043823 C65.67841073 135.27885501 62.47347819 135.23436496 59.25390625 135.15234375 C56.84570542 135.12415184 54.43750221 135.09616326 52.02929688 135.06835938 C48.29273322 135.00629999 44.55640759 134.93737878 40.82006836 134.86303711 C37.17303818 134.79612573 33.52631971 134.75453529 29.87890625 134.71484375 C28.2314315 134.66975929 28.2314315 134.66975929 26.55067444 134.62376404 C10.67250853 134.47439284 -3.31905947 140.80415918 -14.7265625 151.671875 C-27.14610302 164.39016736 -32.5421433 180.1369497 -38.28393555 196.62426758 C-46.08696145 218.86401577 -57.0645306 238.9348036 -75.12255859 254.53881836 C-82.46573556 260.88798249 -86.41921146 266.82034844 -90 276 C-90.38414062 276.96808594 -90.76828125 277.93617188 -91.1640625 278.93359375 C-99.25790745 302.19567484 -99.63086543 329.30865433 -102 353 C-159.75 353 -217.5 353 -277 353 C-275.75516723 345.53100336 -274.57381839 338.64838829 -272.375 331.5 C-272.11847656 330.65832275 -271.86195313 329.81664551 -271.59765625 328.94946289 C-267.37903258 315.47260971 -262.33409511 302.1123692 -255 290 C-258.78169146 288.10915427 -262.88961142 288.39863093 -267 289 C-275.43679399 292.69855413 -279.92729641 304.24429676 -283.40625 312.2265625 C-288.18420271 325.30467664 -290.3479611 339.3634934 -293 353 C-298.92119179 353.13464054 -304.42484071 352.97772416 -310.25 351.75 C-311.38953125 351.51796875 -312.5290625 351.2859375 -313.703125 351.046875 C-317.59923058 350.15281134 -321.42734408 349.03850738 -325.26855469 347.93457031 C-327.15945831 347.39186493 -327.15945831 347.39186493 -329.08856201 346.8381958 C-330.04933655 346.56159119 -331.01011108 346.28498657 -332 346 C-332.04681634 320.1995789 -332.08203594 294.3991642 -332.10362434 268.59870911 C-332.11391669 256.61787492 -332.12793783 244.6370672 -332.15087891 232.65625 C-332.17087546 222.20816879 -332.18373126 211.76010676 -332.18817699 201.31200695 C-332.19077379 195.78493563 -332.19683449 190.25791915 -332.21146011 184.73086548 C-332.22514321 179.51722731 -332.22920118 174.30366602 -332.22621536 169.0900116 C-332.22676076 167.18746013 -332.23067377 165.28490581 -332.23841095 163.38237 C-332.33562434 138.22109903 -329.65755518 113.30424648 -311.30078125 94.20703125 C-303.16600306 86.4037211 -292.42514627 78.67511543 -281 77 C-280.61070312 77.4846875 -280.22140625 77.969375 -279.8203125 78.46875 C-266.69541408 94.19443474 -249.45319678 101.93754941 -229.5 104.75 C-228.00199578 104.86370051 -226.50120663 104.94235367 -225 105 C-223.25009766 105.07734375 -223.25009766 105.07734375 -221.46484375 105.15625 C-201.20079726 105.76309312 -180.47219892 100.78502266 -165 87 C-164.36707031 86.25242432 -163.73414063 85.50484863 -163.08203125 84.73461914 C-158.92235903 79.92808747 -156.1555467 77.44884453 -149.671875 76.97265625 C-147.36443436 76.95818541 -145.05631699 76.98905862 -142.75 77.0625 C-140.45317796 77.08200868 -138.15627657 77.09374552 -135.859375 77.09765625 C-134.72870605 77.10039551 -133.59803711 77.10313477 -132.43310547 77.10595703 C-124.60321469 76.86430061 -116.77311144 75.60870045 -109.375 73 C-107.93253906 72.505 -107.93253906 72.505 -106.4609375 72 C-103.81165207 71.0193581 -103.81165207 71.0193581 -101 69 C-97.0835673 69.41961779 -93.47608478 70.83077292 -89.75 72.0625 C-76.08951733 75.9675385 -61.89376378 75.34760696 -49.203125 68.48828125 C-46.8893511 67.18772108 -46.8893511 67.18772108 -46 65 C-45.80331266 63.08596924 -45.80331266 63.08596924 -45.8125 61 C-45.79832031 60.29875 -45.78414062 59.5975 -45.76953125 58.875 C-45.83487677 56.75475062 -45.83487677 56.75475062 -48 55 C-53.03076984 54.49692302 -56.60456649 55.41778262 -61.171875 57.265625 C-70.42916565 60.98436569 -79.55929582 59.07887168 -88.578125 55.6328125 C-94.76686546 52.67973771 -100.17724103 48.73413846 -104 43 C-104.125 40.625 -104.125 40.625 -103 38 C-94.20183404 30.25480603 -81.38020012 27.39574159 -70 28 C-63.17057327 28.59386319 -59.04957268 31.02849302 -53.84765625 35.44140625 C-50.10962305 38.59463087 -46.80638442 38.33747751 -42.0625 38.26953125 C-30.81955316 37.2800372 -20.00636505 30.46790227 -12.25 22.5 C-7.33243978 16.46811579 -4.28403258 9.00059627 -1 2 C-0.67 1.34 -0.34 0.68 0 0 Z " fill="#EAB85E" transform="translate(633,304)"/>
<path d="M0 0 C7.05505434 2.8582015 9.38084341 8.41862201 12.35546875 15.0234375 C14.57761674 19.04547258 17.44990571 21.49176361 21.046875 24.28125 C24.09863141 26.96679564 24.88297497 28.95902153 25.3359375 32.98828125 C25.41825169 39.99321863 25.07823304 44.26498479 21 50 C21 50.66 21 51.32 21 52 C21.97582031 52.53109375 22.95164062 53.0621875 23.95703125 53.609375 C25.24244561 54.32245158 26.52758768 55.03601917 27.8125 55.75 C28.45509766 56.09804688 29.09769531 56.44609375 29.75976562 56.8046875 C33.27836818 58.77364645 36.0181351 60.42978129 38 64 C38.62205344 68.27661739 38.53407236 70.22473367 36.0625 73.8125 C33.12925803 75.90767283 31.71866372 76.4534681 28.30859375 77.13671875 C27.50091553 77.30260498 26.6932373 77.46849121 25.86108398 77.6394043 C25.24692627 77.75840088 24.63276855 77.87739746 24 78 C23.98018066 78.69971924 23.96036133 79.39943848 23.93994141 80.12036133 C23.84352448 83.35139372 23.73432725 86.58187967 23.625 89.8125 C23.57859375 91.46282227 23.57859375 91.46282227 23.53125 93.14648438 C23.16846915 103.39504344 21.53248916 112.94811628 18.5625 122.75 C18.35818359 123.45253906 18.15386719 124.15507812 17.94335938 124.87890625 C16.59313828 129.4132936 14.93777281 133.68379468 13 138 C16.72953469 137.52366991 20.45855688 137.04343748 24.1875 136.5625 C25.24259766 136.42779297 26.29769531 136.29308594 27.38476562 136.15429688 C28.40634766 136.02216797 29.42792969 135.89003906 30.48046875 135.75390625 C31.41785889 135.63345947 32.35524902 135.5130127 33.32104492 135.38891602 C35.90454734 135.01385729 38.44568678 134.53679064 41 134 C40.4946875 133.0821875 39.989375 132.164375 39.46875 131.21875 C32.65367853 118.50722045 32.65367853 118.50722045 34 112 C38.23850774 102.30140588 45.99617169 97.50643571 55.38671875 93.390625 C63.92764828 90.10352131 72.75830924 87.24557626 82 88 C82.103125 87.28199219 82.20625 86.56398438 82.3125 85.82421875 C84.92585647 75.08866914 94.76549105 66.08703986 102.44140625 58.6484375 C111.29407685 50.05325618 117.68902577 41.93182825 123 30.6875 C125.46731761 25.6944283 127.79209611 21.42489827 133 19 C137.65194794 18.13469331 141.61800042 18.58540013 146.125 19.9375 C153.3502609 25.12083934 158.31358487 31.54711988 160.5625 40.15234375 C161.1616807 44.05236811 161.10541926 47.87383269 161.0625 51.8125 C161.05798828 52.60076172 161.05347656 53.38902344 161.04882812 54.20117188 C161.03711312 56.13414761 161.01917998 58.06708393 161 60 C161.72703125 60.14695312 162.4540625 60.29390625 163.203125 60.4453125 C177.40413916 63.61323104 186.97388068 69.84460407 197 80 C197.67289063 80.67417969 198.34578125 81.34835937 199.0390625 82.04296875 C204.50587419 87.87035738 209.02536392 94.44978643 213.71069336 100.90356445 C217.8075338 106.503479 222.06405047 111.68690139 226.84375 116.72265625 C228.80488623 118.79392875 230.62123904 120.92749558 232.4375 123.125 C238.37085574 129.93172352 245.8361016 135.15915286 253.0625 140.5 C262.73283699 147.73391443 271.07725486 154.23176457 275 166 C276.45580721 183.11455778 273.74530835 199.88583261 262.89453125 213.67578125 C253.29373033 223.78635921 241.79319044 228.72659083 228 230 C224.1192901 230.09096375 220.24412315 230.0216455 216.36328125 229.95703125 C214.07097227 229.93463542 211.77865393 229.91318085 209.48632812 229.89257812 C205.90314042 229.85559765 202.32043835 229.81263174 198.73754883 229.75317383 C195.25855751 229.69823355 191.78010089 229.66946762 188.30078125 229.64453125 C187.24723953 229.62074905 186.19369781 229.59696686 185.10823059 229.57246399 C172.64804862 229.52924164 162.19458742 233.57525955 153 242 C144.62757677 251.68605485 140.31364318 263.48305714 136.25 275.4375 C133.28338563 283.93189469 130.23145649 292.30262726 126.375 300.4375 C126.05176758 301.12577881 125.72853516 301.81405762 125.39550781 302.52319336 C123.80370841 305.77266241 122.17205692 308.75954483 120.06054688 311.71044922 C113.2467346 321.49242308 112.05149298 330.61881656 110.75 342.25 C110.51205793 344.16652565 110.27129637 346.08270319 110.02783203 347.99853516 C109.42775898 352.7757675 108.86265787 357.55631777 108.30993652 362.3392334 C107.85176232 366.27260212 107.36788385 370.20268614 106.8828125 374.1328125 C106.22275871 379.50373317 105.57778513 384.87620857 104.94140625 390.25 C103.97674583 398.30281744 102.9135148 406.33989198 101.8125 414.375 C101.64540527 415.60653809 101.47831055 416.83807617 101.30615234 418.10693359 C101.14969238 419.23437988 100.99323242 420.36182617 100.83203125 421.5234375 C100.69514893 422.51263184 100.5582666 423.50182617 100.41723633 424.52099609 C100 427 100 427 99 430 C93.06 430 87.12 430 81 430 C81.17450684 428.62569824 81.34901367 427.25139648 81.52880859 425.83544922 C83.00242539 414.16981462 84.42416724 402.49918215 85.7890625 390.8203125 C85.93945984 389.53646667 86.08985718 388.25262085 86.24481201 386.92987061 C86.86495416 381.63351476 87.48484949 376.33713594 88.09863281 371.04003906 C88.55391626 367.11215546 89.01515502 363.18498157 89.4765625 359.2578125 C89.61510651 358.0528714 89.75365051 356.8479303 89.89639282 355.60647583 C90.02677948 354.50286713 90.15716614 353.39925842 90.29150391 352.26220703 C90.46113144 350.80525925 90.46113144 350.80525925 90.63418579 349.31887817 C91 347 91 347 92 345 C91.34 345 90.68 345 90 345 C89.59394531 345.82757812 89.59394531 345.82757812 89.1796875 346.671875 C88.36349019 348.2826485 87.51189885 349.87579292 86.6328125 351.453125 C74.07686801 374.74342617 74.47363529 404.15840576 72 430 C66.06 430 60.12 430 54 430 C54 400.82377758 54.76013039 356.66256926 76.375 334.3125 C78.16171257 332.62352881 79.98397656 331.01338074 81.87109375 329.4375 C101.93856078 312.64058595 111.63995822 288.85135004 120 264.75 C125.15594919 249.9875489 130.7195053 238.15607748 142 227 C142.515625 226.45085937 143.03125 225.90171875 143.5625 225.3359375 C147.46059688 221.53935356 152.13090078 219.19813626 156.9375 216.75 C157.94018921 216.23735596 157.94018921 216.23735596 158.96313477 215.71435547 C159.62369873 215.39096191 160.2842627 215.06756836 160.96484375 214.734375 C161.84064087 214.30463379 161.84064087 214.30463379 162.73413086 213.86621094 C170.392933 210.9383551 177.27063587 210.7676116 185.390625 210.91015625 C187.8164042 210.9305831 190.24218554 210.95075748 192.66796875 210.97070312 C196.45728839 211.01408106 200.24646132 211.06244956 204.03564453 211.11645508 C207.71646607 211.16510769 211.397096 211.19473174 215.078125 211.22265625 C216.194151 211.24441422 217.310177 211.26617218 218.46002197 211.28858948 C228.26391395 211.3495617 238.4931502 210.40222145 246.25390625 203.8515625 C254.42372952 195.18825997 257.22854505 184.33257505 257.49609375 172.703125 C255.97073312 164.39171118 250.49771267 160.66438166 243.9375 156.125 C242.21863104 154.89651711 240.50117509 153.66605472 238.78515625 152.43359375 C237.95902832 151.84433105 237.13290039 151.25506836 236.28173828 150.64794922 C223.0739448 141.10883023 212.81552551 129.8635228 203 117 C202.10878288 115.84190122 201.21686968 114.68433772 200.32421875 113.52734375 C198.6419591 111.34571261 196.96211406 109.16227168 195.28515625 106.9765625 C191.41258931 101.93173215 191.41258931 101.93173215 187.5 96.91796875 C186.20179622 95.25802589 184.94101691 93.56894177 183.6875 91.875 C176.22712801 83.89413694 166.71159103 78.93377396 156 77 C155.649375 78.2375 155.29875 79.475 154.9375 80.75 C149.68256106 96.39146145 140.19416704 105.31437785 126 113 C119.67367042 116.02213197 112.95901867 117.26163504 106 116 C102.65620011 114.37659791 99.87443786 112.33939398 97 110 C93.25834643 106.98963736 90.86272782 106.39215547 86 106 C85.2678125 105.93554688 84.535625 105.87109375 83.78125 105.8046875 C74.11595044 105.33397486 61.38289448 108.38765034 54 115 C53.0818431 117.46499585 53.0818431 117.46499585 53 120 C57.43822486 127.86776224 66.76149057 131.80909335 75.0234375 134.30859375 C83.77690628 136.3418798 92.93531337 135.03234332 101 131 C107.13545817 130.55378486 107.13545817 130.55378486 109.9375 132 C111.679494 135.27904752 111.70422583 138.44400819 111 142 C107.2941159 147.6227207 101.16843075 149.12464997 95 151 C94.39027344 151.19464844 93.78054688 151.38929688 93.15234375 151.58984375 C82.93156012 153.53754299 72.71056797 152.19816169 62.953125 148.97265625 C58.09418479 147.14782811 58.09418479 147.14782811 53.1484375 147.671875 C52.56320312 148.02765625 51.97796875 148.3834375 51.375 148.75 C41.83607509 153.94161827 31.26376792 155.10939213 20.56640625 154.96484375 C7.9881506 154.12788969 7.9881506 154.12788969 -3.4921875 157.97265625 C-5.85478142 160.4590193 -5.85478142 160.4590193 -7.84375 163.23046875 C-17.48741024 175.61698164 -36.1476154 180.78021476 -50.96484375 182.77294922 C-71.30524011 185.04221129 -94.03612438 181.44858715 -110.64453125 168.9296875 C-123.00477777 158.8037144 -123.00477777 158.8037144 -125 154 C-134.90142327 157.97547735 -143.74127373 162.07601737 -152 169 C-152.64195312 169.51820313 -153.28390625 170.03640625 -153.9453125 170.5703125 C-168.0228692 183.13279583 -173.92887364 204.88481044 -175 223 C-175.18072866 229.5032399 -175.12668681 236.01130801 -175.11352539 242.51635742 C-175.11324293 244.47854613 -175.11340241 246.44073494 -175.1139679 248.40292358 C-175.11425356 253.70169934 -175.10839414 259.00045224 -175.10139394 264.29922271 C-175.09512198 269.84721112 -175.09455357 275.39520012 -175.09336853 280.94319153 C-175.09026652 291.43658133 -175.08206841 301.92996066 -175.07201904 312.42334586 C-175.06082275 324.37500455 -175.0553386 336.32666376 -175.05032361 348.27832639 C-175.03988481 372.85222339 -175.02230732 397.42611111 -175 422 C-179.18976297 421.24821858 -182.44944531 419.9470822 -186.25 418 C-187.30703125 417.46375 -188.3640625 416.9275 -189.453125 416.375 C-192 415 -192 415 -193 414 C-193.24269259 411.50250223 -193.4217192 409.0311932 -193.55342102 406.52708435 C-193.59552147 405.76266193 -193.63762192 404.99823951 -193.68099815 404.21065277 C-194.10087912 395.99561539 -194.14827948 387.79050644 -194.14526367 379.56665039 C-194.14826618 377.8987877 -194.15167116 376.2309257 -194.15544128 374.56306458 C-194.16417121 370.087795 -194.16661459 365.61254462 -194.16725707 361.13726735 C-194.16797349 358.32906797 -194.17011879 355.52087329 -194.17275429 352.71267509 C-194.18196889 342.88177054 -194.18609378 333.05087943 -194.18530273 323.2199707 C-194.18470191 314.10920026 -194.19526479 304.998489 -194.2110464 295.88773352 C-194.22418587 288.01710806 -194.22948401 280.14650182 -194.22884732 272.2758655 C-194.22859436 267.59629912 -194.23133306 262.91678557 -194.24202538 258.2372303 C-194.25181606 253.8334538 -194.25171173 249.4297795 -194.24450874 245.02599907 C-194.24347662 243.42582421 -194.24574225 241.82564259 -194.2518692 240.22547913 C-194.28167337 231.89083771 -194.00285298 223.68498032 -193.09809875 215.39451599 C-193.01899645 214.66964306 -192.93989415 213.94477013 -192.8583948 213.19793135 C-190.1569957 190.63040792 -179.92700848 167.62601287 -162.3125 152.8125 C-154.69675061 147.03215813 -146.18273079 141.75481924 -137 139 C-137.51949219 138.04222656 -138.03898437 137.08445312 -138.57421875 136.09765625 C-146.01169292 122.06495546 -150.39002724 109.51730949 -150.625 93.5 C-150.64820313 92.49710937 -150.67140625 91.49421875 -150.6953125 90.4609375 C-150.6074681 82.22552466 -148.05040383 76.78989567 -142.9375 70.4375 C-137.27035237 67.66421499 -131.1513789 68.05152674 -125.18359375 69.84765625 C-122.06458266 71.12736177 -119.0402915 72.54261256 -116 74 C-110.03203164 76.73944036 -104.02981472 79.39972675 -98 82 C-97.10667969 82.38929688 -96.21335937 82.77859375 -95.29296875 83.1796875 C-85.9030639 86.63306757 -72.53535371 86.83878147 -63.1875 83.25 C-61.77071215 82.54037836 -60.37081954 81.7947984 -59 81 C-57.9275 80.443125 -56.855 79.88625 -55.75 79.3125 C-51.85703489 76.03887025 -49.5908943 72.34545026 -47 68 C-46.61279785 67.37883301 -46.2255957 66.75766602 -45.82666016 66.11767578 C-44.52770123 64.0292998 -43.26124473 61.92383479 -42 59.8125 C-41.5774292 59.13541992 -41.1548584 58.45833984 -40.71948242 57.76074219 C-38.27444116 53.55422376 -38.27444116 53.55422376 -38.625 48.76171875 C-39.43269717 47.13944062 -40.25281487 45.52305847 -41.1015625 43.921875 C-43.12184953 39.60021752 -42.64172395 34.3687797 -41.41796875 29.8515625 C-38.38174047 22.83635012 -32.13390003 17.43432146 -25.375 14.0625 C-21.39376845 11.62952516 -19.34002875 8.89173519 -16.67578125 5.12109375 C-12.02196725 -0.7693981 -7.17275622 -1.16395628 0 0 Z " fill="#442602" transform="translate(477,227)"/>
<path d="M0 0 C10.59371788 0.34733501 18.88946402 5.19004959 26.55859375 12.3515625 C31.62321749 17.84566633 36.00057971 23.90311363 40.44384766 29.90185547 C54.78519021 49.23814319 69.15086244 65.70219216 89.15234375 79.30859375 C99.89709924 86.69129772 99.89709924 86.69129772 102 93 C103.45889807 103.93272996 100.20011367 115.226525 93.6796875 124.06640625 C87.01769966 131.73543876 78.94292879 134.4841123 68.89871216 135.23043823 C65.67841073 135.27885501 62.47347819 135.23436496 59.25390625 135.15234375 C56.84570542 135.12415184 54.43750221 135.09616326 52.02929688 135.06835938 C48.29273322 135.00629999 44.55640759 134.93737878 40.82006836 134.86303711 C37.17303818 134.79612573 33.52631971 134.75453529 29.87890625 134.71484375 C28.2314315 134.66975929 28.2314315 134.66975929 26.55067444 134.62376404 C16.86480299 134.53264582 8.04797959 136.63237964 -0.4375 141.375 C-4 143 -4 143 -6.7734375 142.32421875 C-27.19466381 133.94311013 -42.95058246 120.61381647 -51.6875 100.0625 C-54.87254003 91.47316624 -57 81.20416487 -57 72 C-55.93458984 71.49339844 -55.93458984 71.49339844 -54.84765625 70.9765625 C-53.46900391 70.30753906 -53.46900391 70.30753906 -52.0625 69.625 C-51.14597656 69.18414062 -50.22945312 68.74328125 -49.28515625 68.2890625 C-46.87096198 67.20800838 -46.87096198 67.20800838 -46 65 C-45.80331266 63.08596924 -45.80331266 63.08596924 -45.8125 61 C-45.79832031 60.29875 -45.78414062 59.5975 -45.76953125 58.875 C-45.83487677 56.75475062 -45.83487677 56.75475062 -48 55 C-53.03076984 54.49692302 -56.60456649 55.41778262 -61.171875 57.265625 C-70.42916565 60.98436569 -79.55929582 59.07887168 -88.578125 55.6328125 C-94.76686546 52.67973771 -100.17724103 48.73413846 -104 43 C-104.125 40.625 -104.125 40.625 -103 38 C-94.20183404 30.25480603 -81.38020012 27.39574159 -70 28 C-63.17057327 28.59386319 -59.04957268 31.02849302 -53.84765625 35.44140625 C-50.10962305 38.59463087 -46.80638442 38.33747751 -42.0625 38.26953125 C-30.81955316 37.2800372 -20.00636505 30.46790227 -12.25 22.5 C-7.33243978 16.46811579 -4.28403258 9.00059627 -1 2 C-0.67 1.34 -0.34 0.68 0 0 Z " fill="#FEE6B7" transform="translate(633,304)"/>
<path d="M0 0 C14.16375445 0.93048128 28.29016997 1.36081579 42.48319435 1.439991 C43.79435408 1.44842403 43.79435408 1.44842403 45.13200188 1.45702744 C53.20125204 1.50787984 61.27047549 1.54012263 69.3398838 1.54741287 C73.82838765 1.55243306 78.31645709 1.57663748 82.80481339 1.61273956 C84.48678225 1.62245666 86.16881113 1.62491433 87.85079956 1.61956787 C103.98393559 1.57043164 103.98393559 1.57043164 110.6277256 6.1665535 C118.37743743 13.91626532 119.29297774 22.15827486 120.45194435 32.61577225 C120.60307182 33.90594757 120.7541993 35.19612289 120.90990639 36.52539444 C121.22798897 39.24370534 121.53921258 41.96267532 121.84476662 44.68242264 C122.23587575 48.1636205 122.63829803 51.64338352 123.04510212 55.12277889 C123.71808242 60.88314648 124.38365795 66.64441422 125.0327549 72.40752029 C125.20571335 73.93471947 125.20571335 73.93471947 125.38216591 75.49277115 C125.6277256 78.1665535 125.6277256 78.1665535 125.6277256 82.1665535 C73.4877256 82.1665535 21.3477256 82.1665535 -32.3722744 82.1665535 C-31.12744163 74.69755686 -29.94609279 67.81494179 -27.7472744 60.6665535 C-27.49075096 59.82487625 -27.23422752 58.98319901 -26.96993065 58.11601639 C-22.75130697 44.63916321 -17.70636951 31.2789227 -10.3722744 19.1665535 C-14.15396585 17.27570777 -18.26188582 17.56518443 -22.3722744 18.1665535 C-30.80906839 21.86510763 -35.29957081 33.41085026 -38.7785244 41.393116 C-43.5564771 54.47123014 -45.7202355 68.5300469 -48.3722744 82.1665535 C-49.95428715 82.17845401 -51.53632616 82.18689137 -53.11836815 82.19389725 C-54.43985863 82.20151077 -54.43985863 82.20151077 -55.78804588 82.20927811 C-64.47313895 82.06568894 -64.47313895 82.06568894 -66.3722744 80.1665535 C-65.97846124 56.64009337 -57.16229481 25.83152967 -40.9972744 8.2915535 C-28.86319821 -3.10297403 -15.4665493 -1.03644055 0 0 Z " fill="#68BE4D" transform="translate(388.3722743988037,574.8334465026855)"/>
<path d="M0 0 C3.21098384 2.46998757 6.13158393 5.14310368 9 8 C9.58007812 8.5775 10.16015625 9.155 10.7578125 9.75 C11.16773438 10.1625 11.57765625 10.575 12 11 C12.53367187 10.48050781 13.06734375 9.96101562 13.6171875 9.42578125 C23.99055483 -0.28354699 33.11537013 -3.46082357 47.203125 -3.2109375 C56.91840746 -2.67119959 64.17884378 0.68688907 70.72265625 7.8984375 C78.57934781 18.28394133 78.44147051 31.8940925 78.29296875 44.3671875 C78.28735364 45.78206933 78.28309264 47.19695711 78.28010559 48.61184692 C78.26880706 52.28449427 78.2394751 55.95676934 78.20599365 59.62927246 C78.17496357 63.39732837 78.16153088 67.16544612 78.14648438 70.93359375 C78.114586 78.28922979 78.0635788 85.64456218 78 93 C73.88137709 95.05931145 68.52640955 94.18489262 64 94.1875 C62.32164062 94.20586914 62.32164062 94.20586914 60.609375 94.22460938 C59.00835938 94.22750977 59.00835938 94.22750977 57.375 94.23046875 C56.39273438 94.23457764 55.41046875 94.23868652 54.3984375 94.24291992 C52 94 52 94 50 92 C49.7484436 89.52876282 49.7484436 89.52876282 49.74462891 86.3762207 C49.73766998 85.19772049 49.73071106 84.01922028 49.72354126 82.80500793 C49.72453827 81.52486313 49.72553528 80.24471832 49.7265625 78.92578125 C49.71146614 76.92046604 49.69634657 74.9151507 49.67987633 72.90984631 C49.64207928 67.95761076 49.62497313 63.00534658 49.61914062 58.05297852 C49.61508489 55.27832012 49.60046172 52.50408016 49.57479858 49.72953796 C49.55140128 47.11636274 49.54397001 44.50298407 49.55435181 41.88972473 C49.47857781 35.06681384 49.20691663 30.4912304 45 25 C39.83269544 20.84921437 34.32674167 21.387464 28 22 C22.87074736 23.17735514 19.89766513 25.63197693 17 30 C16.38945924 33.03816449 16.38945924 33.03816449 16.45410156 36.35083008 C16.43438293 37.6117598 16.41466431 38.87268951 16.39434814 40.17182922 C16.39268525 41.53772945 16.39145424 42.90363026 16.390625 44.26953125 C16.37563603 45.67487997 16.35890737 47.08021111 16.34051514 48.48551941 C16.29690876 52.1729312 16.2768578 55.86010541 16.26177979 59.54772949 C16.24218416 63.3151653 16.20021704 67.08234543 16.16015625 70.84960938 C16.08492714 78.23300407 16.03459195 85.6162912 16 93 C11.88137709 95.05931145 6.52640955 94.18489262 2 94.1875 C0.32164062 94.20586914 0.32164062 94.20586914 -1.390625 94.22460938 C-2.99164062 94.22750977 -2.99164062 94.22750977 -4.625 94.23046875 C-5.60726562 94.23457764 -6.58953125 94.23868652 -7.6015625 94.24291992 C-10 94 -10 94 -12 92 C-12.25828552 89.48406982 -12.25828552 89.48406982 -12.27124023 86.26855469 C-12.28142685 85.06680603 -12.29161346 83.86505737 -12.30210876 82.62689209 C-12.30424881 81.32173645 -12.30638885 80.01658081 -12.30859375 78.671875 C-12.31969142 77.32146107 -12.33208449 75.97105721 -12.34571838 74.6206665 C-12.40114013 68.88213287 -12.43174047 63.14352491 -12.45629883 57.40478516 C-12.47222649 53.89451134 -12.50250583 50.38458305 -12.54106331 46.87448883 C-12.55830393 44.89268993 -12.55876774 42.91076793 -12.5589447 40.92889404 C-12.57895287 39.10735809 -12.57895287 39.10735809 -12.59936523 37.24902344 C-12.60443588 36.18472107 -12.60950653 35.1204187 -12.61473083 34.02386475 C-13.20445861 29.39526431 -14.69470857 26.03049324 -18.375 23.125 C-24.92408032 21.0925268 -32.86520767 20.40411213 -39.125 23.6875 C-42.85290463 26.68603199 -44.75274656 29.14035388 -45.39199829 33.94830322 C-45.40008514 35.0356073 -45.408172 36.12291138 -45.41650391 37.24316406 C-45.43307037 38.48084534 -45.44963684 39.71852661 -45.46670532 40.99371338 C-45.47015761 42.33435017 -45.47343934 43.6749874 -45.4765625 45.015625 C-45.49087943 46.39615397 -45.50663769 47.77666867 -45.52377319 49.15716553 C-45.56553193 52.78004131 -45.59059533 56.40282859 -45.61126709 60.02587891 C-45.64715985 65.83891153 -45.70794384 71.65172649 -45.76975632 77.46453094 C-45.78888761 79.49704427 -45.80058488 81.52949908 -45.81118774 83.56207275 C-45.82658096 85.3996817 -45.82658096 85.3996817 -45.84228516 87.27441406 C-45.84878082 88.35853577 -45.85527649 89.44265747 -45.86196899 90.55963135 C-46 93 -46 93 -47 94 C-48.91458282 94.09971786 -50.83282317 94.13080589 -52.75 94.1328125 C-53.9153125 94.13410156 -55.080625 94.13539063 -56.28125 94.13671875 C-57.5084375 94.13285156 -58.735625 94.12898437 -60 94.125 C-61.84078125 94.13080078 -61.84078125 94.13080078 -63.71875 94.13671875 C-64.8840625 94.13542969 -66.049375 94.13414062 -67.25 94.1328125 C-68.32765625 94.13168457 -69.4053125 94.13055664 -70.515625 94.12939453 C-73 94 -73 94 -74 93 C-74.10587789 90.14982702 -74.14677735 87.32375632 -74.14526367 84.47290039 C-74.14862228 83.57863846 -74.1519809 82.68437653 -74.15544128 81.76301575 C-74.16498157 78.79121532 -74.16689592 75.81947105 -74.16796875 72.84765625 C-74.17117916 70.79121375 -74.17454306 68.73477148 -74.17805481 66.67832947 C-74.18405377 62.36147532 -74.18589392 58.04464122 -74.18530273 53.7277832 C-74.18520106 48.1845967 -74.19885533 42.64153815 -74.21607494 37.098382 C-74.2271701 32.84943547 -74.22922271 28.60052012 -74.22869301 24.35156059 C-74.22987681 22.30734249 -74.23432078 20.26312368 -74.24202538 18.21891975 C-74.25177544 15.36468561 -74.24896707 12.51073239 -74.24291992 9.65649414 C-74.24853943 8.80498779 -74.25415894 7.95348145 -74.25994873 7.07617188 C-74.22831529 1.22831529 -74.22831529 1.22831529 -72 -1 C-69.78515625 -1.25878906 -69.78515625 -1.25878906 -67.0625 -1.265625 C-65.59683594 -1.26949219 -65.59683594 -1.26949219 -64.1015625 -1.2734375 C-63.07804687 -1.26570312 -62.05453125 -1.25796875 -61 -1.25 C-59.97648437 -1.25773438 -58.95296875 -1.26546875 -57.8984375 -1.2734375 C-56.92132813 -1.27085937 -55.94421875 -1.26828125 -54.9375 -1.265625 C-54.03902344 -1.26336914 -53.14054688 -1.26111328 -52.21484375 -1.25878906 C-50 -1 -50 -1 -48 1 C-47.8046875 3.6015625 -47.8046875 3.6015625 -47.875 6.625 C-47.89304687 7.62789062 -47.91109375 8.63078125 -47.9296875 9.6640625 C-47.95289063 10.43492187 -47.97609375 11.20578125 -48 12 C-47.34 12 -46.68 12 -46 12 C-45.75121094 11.4121875 -45.50242187 10.824375 -45.24609375 10.21875 C-41.61499355 3.75334274 -33.9184888 -0.11995871 -27.09375 -2.34375 C-18.44330974 -4.17869187 -7.89327336 -4.54461193 0 0 Z " fill="#033E21" transform="translate(567,727)"/>
<path d="M0 0 C4.80988272 2.17891304 7.30524788 4.4621672 9.703125 9.31640625 C10.07042852 13.16105044 9.80357857 16.90914307 9.515625 20.75390625 C9.41761597 22.36579834 9.41761597 22.36579834 9.31762695 24.01025391 C9.18559391 26.14947875 9.04509686 28.28820059 8.89550781 30.42626953 C8.73636984 32.81697427 8.61798906 35.19944796 8.5390625 37.59375 C7.71986408 57.44853271 2.24928679 76.33777678 -11.296875 91.31640625 C-11.82667969 91.92613281 -12.35648437 92.53585937 -12.90234375 93.1640625 C-21.76489578 102.74235507 -35.91951802 110.72637734 -49.13085938 111.47753906 C-52.68629721 111.52334009 -56.24116638 111.55171324 -59.796875 111.56640625 C-61.6221875 111.59734375 -61.6221875 111.59734375 -63.484375 111.62890625 C-82.23412337 111.70903338 -96.90938142 105.17864644 -110.4140625 92.296875 C-124.24071354 77.79772148 -132.78361911 56.76017968 -132.5 36.8359375 C-132.296875 34.31640625 -132.296875 34.31640625 -131.296875 33.31640625 C-125.5718359 33.69612823 -121.36215817 35.48520152 -116.296875 38.06640625 C-98.63125031 46.72534051 -78.73092636 52.30967964 -59.171875 46.69140625 C-42.63206751 40.61339761 -34.95580478 29.43110184 -26.49804688 14.58007812 C-20.29704012 3.99860765 -13.12772315 -3.90706046 0 0 Z " fill="#B65C1F" transform="translate(475.296875,280.68359375)"/>
<path d="M0 0 C8.35060673 7.5774024 14.76994291 18.82291446 15.44970703 30.2878418 C15.45139893 31.44086792 15.45139893 31.44086792 15.453125 32.6171875 C15.45441406 33.45701172 15.45570313 34.29683594 15.45703125 35.16210938 C15.45316406 36.03029297 15.44929688 36.89847656 15.4453125 37.79296875 C15.44917969 38.67275391 15.45304687 39.55253906 15.45703125 40.45898438 C15.45574219 41.29494141 15.45445312 42.13089844 15.453125 42.9921875 C15.45199707 43.75748779 15.45086914 44.52278809 15.44970703 45.3112793 C15.3203125 47.10546875 15.3203125 47.10546875 14.3203125 48.10546875 C12.29537019 48.19956354 10.2671138 48.22289997 8.23999023 48.21899414 C6.28808022 48.21888084 6.28808022 48.21888084 4.29673767 48.21876526 C2.86579348 48.21365784 1.43484968 48.20844183 0.00390625 48.203125 C-1.4519801 48.20126078 -2.90786707 48.1998369 -4.36375427 48.19883728 C-8.20248129 48.1950124 -12.04117069 48.18518239 -15.87988281 48.1741333 C-19.79426566 48.16391853 -23.70865456 48.15933952 -27.62304688 48.15429688 C-35.30861093 48.14356009 -42.99414395 48.12648404 -50.6796875 48.10546875 C-50.2196008 49.71360819 -49.75362225 51.32006277 -49.28515625 52.92578125 C-49.02629639 53.82055176 -48.76743652 54.71532227 -48.50073242 55.63720703 C-46.96647062 60.24957302 -44.40927824 62.88947476 -40.3671875 65.41796875 C-33.56997016 68.53654225 -25.04181739 68.26087709 -17.921875 66.375 C-14.23160631 64.84260029 -11.38847951 62.96109857 -8.4296875 60.29296875 C-5.6796875 58.10546875 -5.6796875 58.10546875 -3.30078125 58.203125 C-0.02884239 59.32953018 1.59867583 60.88497885 4.0078125 63.35546875 C4.77480469 64.12375 5.54179687 64.89203125 6.33203125 65.68359375 C8.31905314 68.10393476 9.3407568 70.15108686 10.3203125 73.10546875 C0.72389227 83.51158694 -10.98759819 89.47453231 -25.2265625 90.55859375 C-40.18587854 91.15990115 -53.02668224 87.75231061 -64.3671875 77.73046875 C-75.83435702 64.71368172 -79.24023107 52.12384316 -78.921875 34.7734375 C-78.08757596 22.13784401 -73.05093802 10.32449576 -63.63671875 1.6328125 C-45.6818583 -12.37986302 -18.52799224 -13.9704636 0 0 Z " fill="#033E21" transform="translate(383.6796875,732.89453125)"/>
<path d="M0 0 C1.13464188 0.00607269 1.13464188 0.00607269 2.29220581 0.01226807 C3.08907806 0.00876343 3.88595032 0.00525879 4.70697021 0.00164795 C7.34875118 -0.00717566 9.99026573 -0.00131805 12.63204956 0.00543213 C14.46286063 0.00408566 16.29367136 0.00214528 18.1244812 -0.00036621 C21.96460366 -0.00331832 25.80463319 0.00098296 29.64474487 0.01031494 C34.5747365 0.02170953 39.50451039 0.01515052 44.43449402 0.00317001 C48.21592865 -0.00404624 51.99731139 -0.00176174 55.77874756 0.0034256 C57.5968834 0.00476275 59.4150239 0.00311211 61.2331543 -0.00153351 C63.77119482 -0.00659491 66.3088794 0.0011059 68.84689331 0.01226807 C69.60332123 0.0082196 70.35974915 0.00417114 71.13909912 0 C76.34102095 0.04252852 76.34102095 0.04252852 78.56954956 2.27105713 C78.81246948 4.50177002 78.81246948 4.50177002 78.80001831 7.24371338 C78.79808472 8.22533447 78.79615112 9.20695557 78.79415894 10.21832275 C78.78191284 11.2463501 78.76966675 12.27437744 78.75704956 13.33355713 C78.75608276 14.88139893 78.75608276 14.88139893 78.75509644 16.46051025 C78.70970953 24.13089716 78.70970953 24.13089716 77.56954956 25.27105713 C75.85089547 25.36464903 74.12839212 25.38850324 72.40719604 25.38458252 C71.30613022 25.38450699 70.20506439 25.38443146 69.07063293 25.38435364 C67.87273636 25.37919235 66.67483978 25.37403107 65.44064331 25.36871338 C64.22127579 25.36729843 63.00190826 25.36588348 61.74559021 25.36442566 C57.83271886 25.3588068 53.91990375 25.34625109 50.00704956 25.33355713 C47.36186809 25.32854456 44.71668573 25.32398123 42.07150269 25.31988525 C35.5708123 25.30968009 29.07024423 25.29010833 22.56954956 25.27105713 C22.56954956 35.17105713 22.56954956 45.07105713 22.56954956 55.27105713 C27.74964722 55.25365479 27.74964722 55.25365479 33.03439331 55.23590088 C36.36373808 55.22811144 39.69308185 55.22203404 43.02243042 55.21612549 C45.34372407 55.21108379 47.66501453 55.20425061 49.98629761 55.19561768 C53.31483751 55.18354488 56.64333558 55.17782734 59.97189331 55.17340088 C61.01667343 55.16823959 62.06145355 55.16307831 63.13789368 55.15776062 C64.09881424 55.15768509 65.0597348 55.15760956 66.04977417 55.15753174 C66.9002684 55.15531113 67.75076263 55.15309052 68.62702942 55.15080261 C70.56954956 55.27105713 70.56954956 55.27105713 71.56954956 56.27105713 C71.82111225 59.91004888 71.75477182 63.56189386 71.75704956 67.20855713 C71.76929565 68.23658447 71.78154175 69.26461182 71.79415894 70.3237915 C71.79609253 71.3054126 71.79802612 72.28703369 71.80001831 73.29840088 C71.8041272 74.20324219 71.80823608 75.1080835 71.81246948 76.04034424 C71.56954956 78.27105713 71.56954956 78.27105713 69.56954956 80.27105713 C67.54473877 80.51156616 67.54473877 80.51156616 65.02804565 80.49810791 C64.08722137 80.49795685 63.14639709 80.49780579 62.17706299 80.49765015 C61.15931793 80.48732758 60.14157288 80.477005 59.09298706 80.46636963 C58.05260284 80.46353973 57.01221863 80.46070984 55.94030762 80.45779419 C52.60827262 80.44657416 49.2765037 80.42146628 45.94454956 80.39605713 C43.6893451 80.38602969 41.43413644 80.37690343 39.17892456 80.36871338 C33.64237502 80.34662891 28.10598129 80.31313351 22.56954956 80.27105713 C22.57177017 80.88271225 22.57399078 81.49436737 22.57627869 82.1245575 C22.59833078 88.46676044 22.61345584 94.80895257 22.6244812 101.15118408 C22.62952297 103.52098024 22.63635621 105.89077328 22.64498901 108.26055908 C22.65706146 111.65859752 22.66277927 115.05659498 22.66720581 118.45465088 C22.6723671 119.52130478 22.67752838 120.58795868 22.68284607 121.68693542 C22.68295937 123.1583474 22.68295937 123.1583474 22.68307495 124.65948486 C22.68529556 125.52774399 22.68751617 126.39600311 22.68980408 127.29057312 C22.56954956 129.27105713 22.56954956 129.27105713 21.56954956 130.27105713 C19.59371128 130.37091355 17.61431478 130.40186507 15.63595581 130.40386963 C13.82707886 130.40580322 13.82707886 130.40580322 11.98165894 130.40777588 C10.71128784 130.40390869 9.44091675 130.4000415 8.13204956 130.39605713 C6.86554565 130.39992432 5.59904175 130.4037915 4.29415894 130.40777588 C3.0869519 130.40648682 1.87974487 130.40519775 0.63595581 130.40386963 C-0.47835815 130.4027417 -1.59267212 130.40161377 -2.74075317 130.40045166 C-5.43045044 130.27105713 -5.43045044 130.27105713 -7.43045044 129.27105713 C-7.4771253 112.74686433 -7.51241708 96.22269284 -7.53407478 79.69845009 C-7.54439712 72.02634099 -7.55847566 64.35427279 -7.58132935 56.68218994 C-7.60123401 49.99693283 -7.61415991 43.31170534 -7.61862743 36.62641943 C-7.62123979 33.08504215 -7.62739966 29.54374962 -7.64191055 26.00239944 C-7.6579601 22.05368688 -7.65843201 18.105058 -7.65750122 14.15631104 C-7.66469177 12.97595779 -7.67188232 11.79560455 -7.67929077 10.57948303 C-7.67654144 9.50813614 -7.67379211 8.43678925 -7.67095947 7.33297729 C-7.67280306 6.39827921 -7.67464664 5.46358112 -7.6765461 4.50055885 C-7.14727009 -0.2944131 -4.10677547 0.03357511 0 0 Z " fill="#033E21" transform="translate(219.43045043945313,690.7289428710938)"/>
<path d="M0 0 C14.16375445 0.93048128 28.29016997 1.36081579 42.48319435 1.439991 C43.79435408 1.44842403 43.79435408 1.44842403 45.13200188 1.45702744 C53.20125204 1.50787984 61.27047549 1.54012263 69.3398838 1.54741287 C73.82838765 1.55243306 78.31645709 1.57663748 82.80481339 1.61273956 C84.48678225 1.62245666 86.16881113 1.62491433 87.85079956 1.61956787 C103.98393559 1.57043164 103.98393559 1.57043164 110.6277256 6.1665535 C118.37743743 13.91626532 119.29297774 22.15827486 120.45194435 32.61577225 C120.60307182 33.90594757 120.7541993 35.19612289 120.90990639 36.52539444 C121.22798897 39.24370534 121.53921258 41.96267532 121.84476662 44.68242264 C122.23587575 48.1636205 122.63829803 51.64338352 123.04510212 55.12277889 C123.71808242 60.88314648 124.38365795 66.64441422 125.0327549 72.40752029 C125.20571335 73.93471947 125.20571335 73.93471947 125.38216591 75.49277115 C125.6277256 78.1665535 125.6277256 78.1665535 125.6277256 82.1665535 C119.6877256 82.1665535 113.7477256 82.1665535 107.6277256 82.1665535 C107.45644142 80.85162918 107.28515724 79.53670486 107.10868263 78.18193436 C106.46405175 73.23366272 105.81912355 68.28542987 105.17411232 63.33720779 C104.89668934 61.20863739 104.61934356 59.08005692 104.34208107 56.95146561 C103.94011081 53.86558199 103.53784899 50.77973648 103.1355381 47.69389725 C103.014618 46.76512268 102.89369789 45.83634811 102.76911354 44.87942886 C101.7378689 36.97300356 100.68428681 29.06962967 99.6277256 21.1665535 C98.76789574 21.15624603 97.90806587 21.14593857 97.02218056 21.13531876 C88.83115391 21.03643971 80.64018395 20.93381599 72.44925404 20.82721424 C68.2404557 20.77256433 64.03165015 20.71925221 59.82279396 20.66923904 C24.02678084 20.2420724 24.02678084 20.2420724 8.6277256 19.1665535 C8.49954445 20.24598221 8.3713633 21.32541092 8.23929787 22.43754959 C7.73731594 25.49833681 7.3713336 27.24902716 5.84256935 29.830616 C5.48066505 30.46668777 5.11876076 31.10275955 4.74588966 31.75810623 C4.16146095 32.76466263 4.16146095 32.76466263 3.5652256 33.7915535 C-4.86809769 49.04774016 -9.99979024 65.35981749 -14.3722744 82.1665535 C-20.3122744 82.1665535 -26.2522744 82.1665535 -32.3722744 82.1665535 C-29.51589945 60.45810388 -21.72337772 37.91307262 -10.3722744 19.1665535 C-14.15396585 17.27570777 -18.26188582 17.56518443 -22.3722744 18.1665535 C-30.80906839 21.86510763 -35.29957081 33.41085026 -38.7785244 41.393116 C-43.5564771 54.47123014 -45.7202355 68.5300469 -48.3722744 82.1665535 C-49.95428715 82.17845401 -51.53632616 82.18689137 -53.11836815 82.19389725 C-54.43985863 82.20151077 -54.43985863 82.20151077 -55.78804588 82.20927811 C-64.47313895 82.06568894 -64.47313895 82.06568894 -66.3722744 80.1665535 C-65.97846124 56.64009337 -57.16229481 25.83152967 -40.9972744 8.2915535 C-28.86319821 -3.10297403 -15.4665493 -1.03644055 0 0 Z " fill="#432502" transform="translate(388.3722743988037,574.8334465026855)"/>
<path d="M0 0 C0.80752213 -0.00524185 1.61504425 -0.0104837 2.44703674 -0.0158844 C4.15421398 -0.02230511 5.86143545 -0.02096693 7.56860352 -0.01245117 C10.1787005 -0.00394764 12.78660405 -0.03268838 15.39648438 -0.06445312 C17.05598893 -0.06606543 18.71549735 -0.06548704 20.375 -0.0625 C21.15427353 -0.07373398 21.93354706 -0.08496796 22.73643494 -0.09654236 C26.11002569 -0.05323606 28.24590413 0.0413519 30.96026707 2.13718319 C33.12100951 4.90359898 33.25432274 6.2036835 33.25511169 9.6778717 C33.26494583 10.73921829 33.27477997 11.80056488 33.28491211 12.89407349 C33.27041016 14.63272171 33.27041016 14.63272171 33.25561523 16.40649414 C33.26101822 17.63120926 33.2664212 18.85592438 33.27198792 20.11775208 C33.28235228 23.47333903 33.27477384 26.82794001 33.2582767 30.18344045 C33.24442313 33.69476169 33.2508865 37.20605326 33.25440979 40.71739197 C33.25711133 46.61286684 33.24364013 52.50813804 33.22045898 58.40356445 C33.1938371 65.22127311 33.19210617 72.0386415 33.20384735 78.85638434 C33.21462216 85.4142283 33.20844125 91.97194907 33.19429207 98.52978325 C33.18853087 101.3212112 33.18861592 104.11254906 33.19335747 106.90397835 C33.19901082 110.79947946 33.17982019 114.69463928 33.15795898 118.59008789 C33.16246063 119.75121094 33.16696228 120.91233398 33.17160034 122.10864258 C33.16169571 123.16716934 33.15179108 124.22569611 33.1415863 125.31629944 C33.13915641 126.23750611 33.13672651 127.15871279 33.13422298 128.10783482 C32.75390625 130.43359375 32.75390625 130.43359375 31.46600437 132.22916317 C28.44942138 134.35127566 24.81286122 133.85883543 21.25390625 133.83203125 C20.42181641 133.83490143 19.58972656 133.83777161 18.73242188 133.84072876 C16.97395141 133.84276937 15.21545824 133.83723968 13.45703125 133.82470703 C10.76380712 133.80865277 8.07208365 133.8245552 5.37890625 133.84375 C3.6705696 133.84176757 1.96223389 133.83792389 0.25390625 133.83203125 C-0.55240234 133.83810394 -1.35871094 133.84417664 -2.18945312 133.85043335 C-7.75186845 133.78038094 -7.75186845 133.78038094 -9.95861244 132.23195648 C-11.69234542 129.81026636 -11.62343547 128.23880803 -11.62704468 125.27160645 C-11.63550415 124.20322037 -11.64396362 123.13483429 -11.65267944 122.03407288 C-11.64660675 120.86202805 -11.64053406 119.68998322 -11.63427734 118.48242188 C-11.6395343 117.24809921 -11.64479126 116.01377655 -11.65020752 114.74205017 C-11.66116064 111.35557764 -11.65857712 107.96965386 -11.64907026 104.5832119 C-11.64148079 101.0411848 -11.64851729 97.49918133 -11.65322876 93.95715332 C-11.65868841 88.0086648 -11.65148929 82.06028797 -11.63720703 76.11181641 C-11.62088002 69.23222353 -11.62616839 62.35289736 -11.64268625 55.47331095 C-11.65629523 49.56919523 -11.65822369 43.66515986 -11.65037024 37.76103354 C-11.64569045 34.23363466 -11.64507716 30.70636119 -11.65497971 27.17897034 C-11.66524556 23.2474631 -11.65102149 19.31625519 -11.63427734 15.38476562 C-11.64035004 14.21272079 -11.64642273 13.04067596 -11.65267944 11.83311462 C-11.64421997 10.76472855 -11.6357605 9.69634247 -11.62704468 8.59558105 C-11.6259136 7.66570122 -11.62478252 6.73582138 -11.62361717 5.77776337 C-11.24609375 3.43359375 -11.24609375 3.43359375 -9.95188332 1.63622284 C-6.99420522 -0.44902248 -3.49203504 -0.01312093 0 0 Z " fill="#401E00" transform="translate(474.24609375,417.56640625)"/>
<path d="M0 0 C6.32821891 0.15870015 10.88050984 0.39054467 15.44311523 5.06469727 C18.32520373 8.80428928 20.59532932 12.80950502 22.6887207 17.03393555 C24.43228807 20.38040184 26.60691024 23.28443943 28.86889648 26.29907227 C32.18347666 22.23402111 35.28670002 18.04024179 38.36889648 13.79907227 C39.31573362 12.49620372 40.26363049 11.19410458 41.21264648 9.89282227 C41.62708008 9.32241211 42.04151367 8.75200195 42.46850586 8.16430664 C43.16169922 7.24101563 43.16169922 7.24101563 43.86889648 6.29907227 C44.45832031 5.41002197 45.04774414 4.52097168 45.6550293 3.60498047 C47.86889648 1.29907227 47.86889648 1.29907227 50.7097168 0.73144531 C52.31218262 0.77072144 52.31218262 0.77072144 53.94702148 0.81079102 C55.68725586 0.83496094 55.68725586 0.83496094 57.46264648 0.85961914 C58.66920898 0.90151367 59.87577148 0.9434082 61.11889648 0.98657227 C62.95194336 1.02041016 62.95194336 1.02041016 64.82202148 1.05493164 C67.8388815 1.11385469 70.85327163 1.19607961 73.86889648 1.29907227 C74.5234375 3.04736328 74.5234375 3.04736328 74.86889648 5.29907227 C73.91943359 7.25585938 73.91943359 7.25585938 72.39624023 9.32641602 C71.83243652 10.10919922 71.26863281 10.89198242 70.68774414 11.69848633 C70.06689941 12.53605469 69.44605469 13.37362305 68.80639648 14.23657227 C67.51896455 16.02008802 66.23388546 17.80530408 64.95092773 19.59204102 C64.2814209 20.52064941 63.61191406 21.44925781 62.92211914 22.40600586 C59.50774946 27.21697859 56.25013894 32.13026553 52.99389648 37.04907227 C52.38151123 37.97196045 51.76912598 38.89484863 51.13818359 39.84570312 C49.71300099 41.99545766 48.28980761 44.14649307 46.86889648 46.29907227 C49.80382732 51.67041698 53.11739947 56.56159793 56.74389648 61.48657227 C57.89044881 63.06678 59.03625309 64.64753071 60.18139648 66.22875977 C62.06650294 68.82536158 63.95636936 71.4180371 65.85717773 74.00317383 C67.83344473 76.69607745 69.78991426 79.4024724 71.74389648 82.11157227 C72.36893066 82.95292725 72.99396484 83.79428223 73.63793945 84.66113281 C74.20657715 85.45559814 74.77521484 86.25006348 75.36108398 87.06860352 C75.87010254 87.76574463 76.37912109 88.46288574 76.90356445 89.18115234 C78.15115665 91.91834564 77.70077173 93.46729472 76.86889648 96.29907227 C72.66978052 96.42291189 68.47163833 96.51351834 64.27124023 96.57373047 C62.84331747 96.59883574 61.41552274 96.63292814 59.98803711 96.67626953 C57.93237731 96.73710904 55.87841895 96.76531777 53.82202148 96.78735352 C51.96818848 96.82662964 51.96818848 96.82662964 50.0769043 96.86669922 C46.86889648 96.29907227 46.86889648 96.29907227 44.58447266 94.00244141 C44.01833252 93.11032959 43.45219238 92.21821777 42.86889648 91.29907227 C42.44229736 90.66372559 42.01569824 90.02837891 41.57617188 89.3737793 C41.20999756 88.7742041 40.84382324 88.17462891 40.46655273 87.55688477 C40.05083008 86.88270508 39.63510742 86.20852539 39.20678711 85.51391602 C38.7859082 84.82426758 38.3650293 84.13461914 37.93139648 83.42407227 C34.75637224 78.232147 31.45742975 73.21645417 27.86889648 68.29907227 C23.73985327 73.20534715 20.43210109 78.55930906 17.02319336 83.97290039 C16.09818531 85.42427285 15.1554168 86.86449494 14.19433594 88.29223633 C12.86244661 90.236099 12.86244661 90.236099 11.89306641 92.1574707 C10.88452148 93.81079102 10.88452148 93.81079102 7.86889648 96.29907227 C3.24352371 97.02984175 -1.27625982 96.86240791 -5.94360352 96.67407227 C-7.84142578 96.6334668 -7.84142578 96.6334668 -9.77758789 96.59204102 C-12.89715821 96.52140923 -16.01326192 96.42280873 -19.13110352 96.29907227 C-19.78564453 94.55297852 -19.78564453 94.55297852 -20.13110352 92.29907227 C-19.18164062 90.32641602 -19.18164062 90.32641602 -17.65844727 88.23657227 C-17.09488525 87.44895508 -16.53132324 86.66133789 -15.95068359 85.84985352 C-15.32959717 85.0080957 -14.70851074 84.16633789 -14.06860352 83.29907227 C-12.77914571 81.50769008 -11.49009547 79.71601446 -10.20141602 77.92407227 C-9.53142578 77.00110352 -8.86143555 76.07813477 -8.17114258 75.12719727 C-4.87382523 70.55609576 -1.66266868 65.92543738 1.55639648 61.29907227 C2.70510624 59.65252 3.85477652 58.00663723 5.00561523 56.36157227 C5.48732178 55.67192383 5.96902832 54.98227539 6.46533203 54.27172852 C7.90034192 52.25487691 9.37550019 50.27297178 10.86889648 48.29907227 C9.53062362 45.49785484 8.03793865 42.94708363 6.28686523 40.38500977 C5.77285156 39.6323584 5.25883789 38.87970703 4.72924805 38.10424805 C3.90118652 36.90131104 3.90118652 36.90131104 3.05639648 35.67407227 C2.48759766 34.84246582 1.91879883 34.01085937 1.33276367 33.15405273 C-1.66417486 28.79509359 -4.70923982 24.48057111 -7.84594727 20.22094727 C-8.43851318 19.4147998 -9.0310791 18.60865234 -9.64160156 17.77807617 C-10.77965259 16.23799364 -11.92537367 14.70354214 -13.07958984 13.17553711 C-17.96887848 6.56559057 -17.96887848 6.56559057 -18.13110352 2.29907227 C-14.70934506 -1.12268619 -4.56001489 0.13108931 0 0 Z " fill="#033E21" transform="translate(729.131103515625,724.700927734375)"/>
<path d="M0 0 C0.78391113 -0.00145523 1.56782227 -0.00291046 2.37548828 -0.00440979 C4.02966028 -0.0027529 5.68384802 0.00878503 7.33789062 0.02954102 C9.86655306 0.05849702 12.39311805 0.05014674 14.921875 0.03710938 C16.53126017 0.04334722 18.14063873 0.05173853 19.75 0.0625 C20.88139404 0.05809654 20.88139404 0.05809654 22.03564453 0.05360413 C24.92891786 0.10547269 27.40021246 0.29218144 30.07460022 1.44078064 C33.01988033 4.80307433 32.42307285 8.46491341 32.37670898 12.78515625 C32.38211197 13.73662537 32.38751495 14.68809448 32.39308167 15.668396 C32.40560888 18.81960979 32.38905112 21.96991707 32.37109375 25.12109375 C32.37124864 27.30680387 32.37273604 29.49251428 32.37550354 31.67822266 C32.37688933 36.26151657 32.3642992 40.84449823 32.34155273 45.42773438 C32.31316782 51.30941518 32.31590315 57.19057693 32.32864285 63.07229614 C32.33559025 67.58638968 32.32782145 72.10036276 32.31538582 76.61444092 C32.3108622 78.78342223 32.31054243 80.95241642 32.31445122 83.12139893 C32.3173542 86.15021371 32.30089989 89.17830745 32.27905273 92.20703125 C32.28355438 93.10790466 32.28805603 94.00877808 32.29269409 94.93695068 C32.28278946 95.76132629 32.27288483 96.5857019 32.26268005 97.43505859 C32.26025016 98.15108246 32.25782026 98.86710632 32.25531673 99.60482788 C31.7523562 102.10598547 30.90857041 102.98592335 28.875 104.49609375 C25.9692257 104.80659585 23.28213903 104.94027192 20.375 104.9296875 C19.54291016 104.93492935 18.71082031 104.9401712 17.85351562 104.9455719 C16.09506343 104.95199254 14.33656829 104.95065452 12.578125 104.94213867 C9.88464103 104.93362423 7.19327459 104.96239424 4.5 104.99414062 C2.7916673 104.9957526 1.08333084 104.99517518 -0.625 104.9921875 C-1.43130859 105.00342148 -2.23761719 105.01465546 -3.06835938 105.02622986 C-8.5830162 104.95733363 -8.5830162 104.95733363 -10.83607483 103.03993225 C-12.78996141 99.18371776 -12.55094988 95.55894338 -12.52905273 91.29296875 C-12.53591599 90.36246704 -12.54277924 89.43196533 -12.54985046 88.4732666 C-12.56815249 85.39738713 -12.56427643 82.32201599 -12.55859375 79.24609375 C-12.56315358 77.10904778 -12.56845855 74.97200329 -12.57447815 72.83496094 C-12.5834157 68.35605919 -12.58097834 63.87733569 -12.57104492 59.3984375 C-12.55954849 53.65469596 -12.57977413 47.91156856 -12.60896206 42.16790771 C-12.62729379 37.75500573 -12.62703773 33.34225178 -12.62132454 28.92932129 C-12.62117099 26.8113926 -12.62724328 24.69345408 -12.63961601 22.57556152 C-12.65446862 19.61638658 -12.64389131 16.65835745 -12.62670898 13.69921875 C-12.64121094 12.38371033 -12.64121094 12.38371033 -12.65600586 11.04162598 C-12.5841905 5.1448977 -12.5841905 5.1448977 -10.32460022 1.95225525 C-7.03498638 -0.22550822 -3.81215146 -0.05677813 0 0 Z " fill="#411E00" transform="translate(418.125,446.50390625)"/>
<path d="M0 0 C0.35644531 2.50610352 0.35644531 2.50610352 0.328125 5.62890625 C0.32296875 6.74587891 0.3178125 7.86285156 0.3125 9.01367188 C0.291875 10.18478516 0.27125 11.35589844 0.25 12.5625 C0.24484375 13.73748047 0.2396875 14.91246094 0.234375 16.12304688 C0.15374453 24.84625547 0.15374453 24.84625547 -1 26 C-2.75622457 26.07608193 -4.51287292 26.14686733 -6.27026367 26.18798828 C-13.87866408 26.4056895 -20.88556638 26.95926545 -27 32 C-32.71536388 38.21476461 -32.72184811 43.45327364 -32.671875 51.6796875 C-32.69099945 53.49244675 -32.69099945 53.49244675 -32.71051025 55.34182739 C-32.74674665 59.18645879 -32.74951904 63.03021295 -32.75 66.875 C-32.77158372 70.74088399 -32.79997347 74.60663468 -32.83233643 78.47244263 C-32.85016077 80.87512784 -32.86038891 83.27788314 -32.86248779 85.68063354 C-32.86629456 86.75910553 -32.87010132 87.83757751 -32.87402344 88.94873047 C-32.87448669 89.90246552 -32.87494995 90.85620056 -32.87542725 91.83883667 C-33 94 -33 94 -34 95 C-38.13962283 95.25301239 -42.29105996 95.18522549 -46.4375 95.1875 C-47.60861328 95.19974609 -48.77972656 95.21199219 -49.98632812 95.22460938 C-51.10330078 95.22654297 -52.22027344 95.22847656 -53.37109375 95.23046875 C-54.40161865 95.23457764 -55.43214355 95.23868652 -56.49389648 95.24291992 C-59 95 -59 95 -61 93 C-61.19874865 90.11874159 -61.27267145 87.33357935 -61.25878906 84.45117188 C-61.2622937 83.56651749 -61.26579834 82.6818631 -61.26940918 81.770401 C-61.27823566 78.83643829 -61.27237412 75.90271531 -61.265625 72.96875 C-61.26697139 70.93615675 -61.2689117 68.90356382 -61.27142334 66.87097168 C-61.27437585 62.6071466 -61.27007289 58.34340521 -61.26074219 54.07958984 C-61.24934761 48.60479827 -61.2559064 43.13020277 -61.26788712 37.6554184 C-61.27510229 33.45707716 -61.27281936 29.25878268 -61.26763153 25.06044006 C-61.26629409 23.041346 -61.26794605 21.02224774 -61.27259064 19.00315857 C-61.27765025 16.18493348 -61.26995362 13.36702922 -61.25878906 10.54882812 C-61.26283752 9.70824356 -61.26688599 8.867659 -61.27105713 8.00160217 C-61.22852792 2.22852792 -61.22852792 2.22852792 -59 0 C-56.6015625 -0.25878906 -56.6015625 -0.25878906 -53.625 -0.265625 C-52.55765625 -0.26820313 -51.4903125 -0.27078125 -50.390625 -0.2734375 C-48.71226562 -0.26183594 -48.71226562 -0.26183594 -47 -0.25 C-45.88109375 -0.25773438 -44.7621875 -0.26546875 -43.609375 -0.2734375 C-42.54203125 -0.27085937 -41.4746875 -0.26828125 -40.375 -0.265625 C-39.39273437 -0.26336914 -38.41046875 -0.26111328 -37.3984375 -0.25878906 C-35 0 -35 0 -33 2 C-32.5859375 4.6015625 -32.5859375 4.6015625 -32.375 7.625 C-32.30023438 8.62789062 -32.22546875 9.63078125 -32.1484375 10.6640625 C-32.07496094 11.82035156 -32.07496094 11.82035156 -32 13 C-30.7934375 11.453125 -30.7934375 11.453125 -29.5625 9.875 C-22.93348435 2.18534184 -9.93321555 -6.6221437 0 0 Z " fill="#033D20" transform="translate(477,726)"/>
<path d="M0 0 C0.83208984 -0.00524185 1.66417969 -0.0104837 2.52148438 -0.0158844 C4.27993657 -0.02230504 6.03843171 -0.02096702 7.796875 -0.01245117 C10.49035897 -0.00393673 13.18172541 -0.03270674 15.875 -0.06445312 C17.5833327 -0.0660651 19.29166916 -0.06548768 21 -0.0625 C21.80630859 -0.07373398 22.61261719 -0.08496796 23.44335938 -0.09654236 C29.0143353 -0.02694252 29.0143353 -0.02694252 31.21107483 2.05613708 C32.90113933 5.17350588 32.88768533 7.43241591 32.90405273 10.97460938 C32.91091599 11.62225754 32.91777924 12.2699057 32.92485046 12.93717957 C32.9431075 15.07162583 32.9392834 17.20533639 32.93359375 19.33984375 C32.93815573 20.82670328 32.94346135 22.31356069 32.94947815 23.80041504 C32.95840675 26.91406836 32.95598872 30.02746515 32.94604492 33.14111328 C32.93454818 37.12946614 32.95477766 41.11693454 32.98396206 45.1051712 C33.00231448 48.17471938 33.00203373 51.24405514 32.99632454 54.31364441 C32.99617124 55.78404482 33.00222256 57.25445955 33.01461601 58.72480774 C33.02950963 60.78129482 33.01886474 62.83614208 33.00170898 64.89257812 C33.00154282 66.06187866 33.00137665 67.2311792 33.00120544 68.43591309 C32.39185303 72.08041447 31.4505246 73.26376628 28.5 75.43359375 C25.57706095 75.81920329 23.03974228 75.97176263 20.12109375 75.9296875 C19.3126149 75.93114273 18.50413605 75.93259796 17.67115784 75.93409729 C15.96571236 75.93244035 14.26025162 75.92090186 12.55493164 75.90014648 C9.94287773 75.87115344 7.33284923 75.87954813 4.72070312 75.89257812 C3.06249013 75.88634157 1.40428354 75.87795127 -0.25390625 75.8671875 C-1.03520401 75.87012314 -1.81650177 75.87305878 -2.62147522 75.87608337 C-7.96377785 75.78295548 -7.96377785 75.78295548 -10.20533752 74.32252502 C-12.13823566 71.50239869 -11.88148746 69.20149331 -11.88818359 65.80664062 C-11.89344055 65.13802505 -11.89869751 64.46940948 -11.90411377 63.78053284 C-11.91731525 61.57089868 -11.90857581 59.36198521 -11.8984375 57.15234375 C-11.90045821 55.61681988 -11.90336962 54.08129695 -11.90713501 52.54577637 C-11.91155854 49.3277879 -11.90512659 46.11004927 -11.89111328 42.89208984 C-11.87402111 38.76585759 -11.88386218 34.64021071 -11.90183067 30.51399994 C-11.91266788 27.34327783 -11.90922252 24.17269466 -11.9014473 21.00196838 C-11.8994451 19.48051382 -11.90190526 17.95904668 -11.90888596 16.43760681 C-11.91649972 14.31157997 -11.90489882 12.18650292 -11.88818359 10.06054688 C-11.88579681 8.85047974 -11.88341003 7.6404126 -11.88095093 6.39367676 C-11.5 3.43359375 -11.5 3.43359375 -10.21206665 1.54466248 C-7.15184776 -0.44130782 -3.53500278 -0.01287037 0 0 Z " fill="#401E00" transform="translate(362.5,475.56640625)"/>
<path d="M0 0 C1.11890625 0.00322266 2.2378125 0.00644531 3.390625 0.00976562 C5.06898438 -0.0144043 5.06898438 -0.0144043 6.78125 -0.0390625 C8.38226562 -0.0400293 8.38226562 -0.0400293 10.015625 -0.04101562 C10.99789062 -0.04399658 11.98015625 -0.04697754 12.9921875 -0.05004883 C14.17941406 0.13424683 14.17941406 0.13424683 15.390625 0.32226562 C17.97239145 4.19491531 17.67137781 7.40271066 17.64941406 11.89282227 C17.6529187 12.76786911 17.65642334 13.64291595 17.66003418 14.54447937 C17.66884595 17.44054059 17.66300479 20.33635811 17.65625 23.23242188 C17.65759669 25.24116564 17.65953725 27.24990909 17.66204834 29.25865173 C17.66499875 33.46942242 17.66070414 37.6801083 17.65136719 41.89086914 C17.6399654 47.29725159 17.64653728 52.70343564 17.65851212 58.10981083 C17.66572669 62.25753789 17.66344477 66.40521763 17.65825653 70.55294609 C17.6569193 72.54692038 17.65857031 74.54089892 17.66321564 76.53486824 C17.66827505 79.3170631 17.66057926 82.09893296 17.64941406 84.88110352 C17.65346252 85.7107663 17.65751099 86.54042908 17.66168213 87.39523315 C17.61915457 93.09373605 17.61915457 93.09373605 15.390625 95.32226562 C12.9921875 95.58105469 12.9921875 95.58105469 10.015625 95.58789062 C8.94828125 95.59046875 7.8809375 95.59304688 6.78125 95.59570312 C5.10289062 95.58410156 5.10289062 95.58410156 3.390625 95.57226562 C2.27171875 95.58 1.1528125 95.58773437 0 95.59570312 C-1.06734375 95.593125 -2.1346875 95.59054687 -3.234375 95.58789062 C-4.21664062 95.58563477 -5.19890625 95.58337891 -6.2109375 95.58105469 C-8.609375 95.32226562 -8.609375 95.32226562 -10.609375 93.32226562 C-10.80812365 90.44100721 -10.88204645 87.65584498 -10.86816406 84.7734375 C-10.8716687 83.88878311 -10.87517334 83.00412872 -10.87878418 82.09266663 C-10.88761066 79.15870392 -10.88174912 76.22498093 -10.875 73.29101562 C-10.87634639 71.25842238 -10.8782867 69.22582945 -10.88079834 67.1932373 C-10.88375085 62.92941223 -10.87944789 58.66567084 -10.87011719 54.40185547 C-10.85872261 48.9270639 -10.8652814 43.45246839 -10.87726212 37.97768402 C-10.88447729 33.77934279 -10.88219436 29.5810483 -10.87700653 25.38270569 C-10.87566909 23.36361162 -10.87732105 21.34451336 -10.88196564 19.32542419 C-10.88702525 16.50719911 -10.87932862 13.68929485 -10.86816406 10.87109375 C-10.87221252 10.03050919 -10.87626099 9.18992462 -10.88043213 8.3238678 C-10.81625769 -0.38741144 -7.7068322 0.05119273 0 0 Z " fill="#043F21" transform="translate(676.609375,725.677734375)"/>
<path d="M0 0 C2.52831845 1.68026179 4.83812767 3.47820002 7.15234375 5.44140625 C11.51827648 9.12429665 16.54081173 8.31509409 22 8 C24.76266145 7.50435871 27.30669742 6.81307248 30 6 C28.92080079 9.45343747 27.36077852 11.90406866 25.125 14.6875 C22.19142675 18.45821488 20.48356099 22.22948991 18.859375 26.703125 C18.03986154 28.89346098 17.0828345 30.92931648 16 33 C15.690625 31.865625 15.38125 30.73125 15.0625 29.5625 C14.37075469 26.21224901 14.37075469 26.21224901 13 25 C7.95546225 24.588201 4.40819823 25.41261827 -0.171875 27.265625 C-9.42916565 30.98436569 -18.55929582 29.07887168 -27.578125 25.6328125 C-33.76686546 22.67973771 -39.17724103 18.73413846 -43 13 C-43.125 10.625 -43.125 10.625 -42 8 C-31.51539025 -1.22980273 -13.102867 -5.2959323 0 0 Z " fill="#EAB95E" transform="translate(572,334)"/>
<path d="M0 0 C8.67015494 2.43773055 16.33411515 2.27575925 24.7109375 -0.953125 C27.93294418 -1.91602355 30.55560531 -1.40999247 33.75 -0.5625 C35.75 1.4375 35.75 1.4375 36.125 4.8125 C35.75 8.4375 35.75 8.4375 34.25 10.6875 C26.36387119 16.20779017 17.04019514 16.47916676 7.75 17.4375 C13.36547364 20.40350173 18.82984064 22.98395361 24.9375 24.76171875 C26.75 25.4375 26.75 25.4375 28.75 27.4375 C28.6073952 30.78871283 28.49014163 32.73866092 26 35.08984375 C21.73106561 37.64675758 17.54485858 37.23371583 12.75 36.4375 C0.13305228 32.01944423 -10.2347488 23.55193613 -16.25 11.4375 C-17.50389864 7.67580409 -17.81412993 4.37005791 -17.25 0.4375 C-13.20752356 -5.12090511 -5.48283589 -1.65355368 0 0 Z " fill="#422602" transform="translate(388.25,341.5625)"/>
<path d="M0 0 C2.83140351 1.26360157 3.91717724 1.88168177 5.75 4.5 C9.82044532 15.8972469 5.43988712 30.14805149 0.57080078 40.82763672 C-3.87991459 49.88406749 -9.31460152 56.58481285 -19 60 C-22.15671426 61.03508203 -24.6977646 61.52965478 -28 61 C-31.65051067 59.0292348 -34.82377003 56.65901507 -38 54 C-37.54965437 49.20514355 -35.26828646 46.42472406 -32.1875 42.9375 C-31.45696411 42.08986084 -31.45696411 42.08986084 -30.71166992 41.22509766 C-27.24640614 37.26116723 -23.58307397 33.54623744 -19.8125 29.875 C-10.77360707 21.01674042 -4.8866713 11.64286457 0 0 Z " fill="#D19439" transform="translate(615,264)"/>
<path d="M0 0 C0.99 0.66 1.98 1.32 3 2 C2.52691406 2.79277344 2.05382812 3.58554687 1.56640625 4.40234375 C-8.0146277 21.06554459 -13.83398112 39.5496289 -18.125 58.2109375 C-19 62 -19 62 -20 65 C-25.28 65 -30.56 65 -36 65 C-33.6508302 43.27017931 -29.77915785 18.55525322 -13.6875 2.3125 C-9.59118434 -0.91067808 -4.9915312 -0.90755113 0 0 Z " fill="#D19439" transform="translate(376,592)"/>
<path d="M0 0 C0.66 0 1.32 0 2 0 C-0.31476056 22.26338191 -2.64839212 44.51768079 -5.75 66.6875 C-5.85645844 67.45421021 -5.96291687 68.22092041 -6.07260132 69.01086426 C-7.80317264 81.40951792 -7.80317264 81.40951792 -9 85 C-11.97 85 -14.94 85 -18 85 C-18.26492508 75.60462121 -17.2751532 66.38512098 -16.25 57.0625 C-16.16007782 56.23807404 -16.07015564 55.41364807 -15.97750854 54.5642395 C-11.46627009 13.63556443 -11.46627009 13.63556443 0 0 Z " fill="#D09439" transform="translate(567,572)"/>
<path d="M0 0 C3.81597095 2.51691701 6.77701507 4.8458967 8.9375 8.9375 C9.96855037 14.31927049 9.6403002 18.5318996 7.1875 23.4375 C2.8738142 28.23048422 -0.03916114 29.65227935 -6.375 30.25 C-12.11862567 29.76325206 -15.55637034 27.56253463 -19.4375 23.375 C-22.21464437 19.20928345 -22.54755038 15.86884553 -22.0625 10.9375 C-18.10181747 1.41765321 -10.27064119 -3.56328368 0 0 Z " fill="#043E21" transform="translate(686.0625,687.0625)"/>
<path d="M0 0 C0.70930664 0.01208496 1.41861328 0.02416992 2.14941406 0.03662109 C7.68864284 0.24789542 10.88343957 0.89081145 15.0625 4.5 C19.31926676 9.42888783 19.18521104 11.48168836 20.0625 18.5 C7.1925 18.5 -5.6775 18.5 -18.9375 18.5 C-18.9375 11.67610063 -18.9375 11.67610063 -16.8125 8.375 C-16.22082031 7.41207031 -16.22082031 7.41207031 -15.6171875 6.4296875 C-11.12701608 1.27121149 -6.67085363 -0.18050545 0 0 Z " fill="#B3E39B" transform="translate(351.9375,744.5)"/>
<path d="M0 0 C3.37532321 3.01624627 4.75818028 5.153631 6 9.5 C6 13.61614912 5.31176212 15.60941556 3 19 C0.06791771 21.44340191 -1.68822321 21.96659534 -5.5 22.375 C-9.31177679 21.96659534 -11.06791771 21.44340191 -14 19 C-16.31176212 15.60941556 -17 13.61614912 -17 9.5 C-15.74154719 5.09541515 -14.22551898 3.22551898 -11 0 C-7.13257897 -1.28914034 -3.85230592 -1.20900829 0 0 Z " fill="#432705" transform="translate(657,348)"/>
<path d="M0 0 C0.66 0 1.32 0 2 0 C2.20753906 0.64066406 2.41507812 1.28132812 2.62890625 1.94140625 C4.71970545 7.81139061 6.96845838 11.30970562 11.58203125 15.4609375 C13 17 13 17 13.4375 19.9375 C13.293125 20.618125 13.14875 21.29875 13 22 C10 23 10 23 7.26953125 22.078125 C-1.34793912 19.23652187 -11.3975998 20.58529117 -20 23 C-19.63769078 16.71997346 -19.63769078 16.71997346 -17.0625 13.8125 C-14.30079705 12.17802274 -11.8841311 11.23300832 -8.875 10.1875 C-5.2876876 8.89481521 -5.2876876 8.89481521 -2.72265625 6.2265625 C-1.81364504 4.11343313 -1.81364504 4.11343313 -1 1 C-0.67 0.67 -0.34 0.34 0 0 Z " fill="#B85C1F" transform="translate(472,244)"/>
<path d="M0 0 C10.65691222 -0.0462719 21.31380068 -0.08184295 31.97079277 -0.10362434 C36.91887832 -0.11407654 41.86689532 -0.12826183 46.81494141 -0.15087891 C51.58707481 -0.17255623 56.35914213 -0.1845578 61.13132095 -0.18975449 C62.9550493 -0.19345946 64.77877389 -0.200694 66.60247421 -0.21146011 C69.15026512 -0.22590721 71.69778042 -0.22798081 74.24560547 -0.22705078 C75.00517548 -0.23424133 75.76474548 -0.24143188 76.54733276 -0.24884033 C81.77189568 -0.22810432 81.77189568 -0.22810432 84 2 C84.22705078 4.24658203 84.22705078 4.24658203 84.1953125 7.0078125 C84.18886719 7.99394531 84.18242187 8.98007812 84.17578125 9.99609375 C84.15064453 11.54490234 84.15064453 11.54490234 84.125 13.125 C84.11597656 14.16527344 84.10695313 15.20554687 84.09765625 16.27734375 C84.07403747 18.85179092 84.04110149 21.42578212 84 24 C82 23 82 23 81 20 C81 14.39 81 8.78 81 3 C54.27 3 27.54 3 0 3 C0 2.01 0 1.02 0 0 Z " fill="#235E37" transform="translate(214,691)"/>
<path d="M0 0 C3.375 1.0625 3.375 1.0625 5.3125 2.5625 C6.89420246 6.28415285 7.12221368 10.084686 6.375 14.0625 C5.09765625 15.80859375 5.09765625 15.80859375 3.375 17.0625 C0.2809768 17.45539183 -1.66961765 17.68687655 -4.625 17.0625 C-7.87485922 14.38136615 -8.52075014 12.71116582 -9.1875 8.5625 C-8.625 5.0625 -8.625 5.0625 -6.5625 2.0625 C-3.625 0.0625 -3.625 0.0625 0 0 Z " fill="#402502" transform="translate(469.625,286.9375)"/>
<path d="M0 0 C0.33 0 0.66 0 1 0 C1 9.24 1 18.48 1 28 C6.18009766 27.98259766 6.18009766 27.98259766 11.46484375 27.96484375 C14.79418852 27.95705431 18.12353229 27.95097691 21.45288086 27.94506836 C23.77417451 27.94002667 26.09546497 27.93319349 28.41674805 27.92456055 C31.74528795 27.91248775 35.07378602 27.90677021 38.40234375 27.90234375 C39.44712387 27.89718246 40.49190399 27.89202118 41.56834412 27.88670349 C42.52926468 27.88662796 43.49018524 27.88655243 44.48022461 27.88647461 C45.33071884 27.884254 46.18121307 27.88203339 47.05747986 27.87974548 C49 28 49 28 50 29 C50.0991657 30.62257544 50.13079777 32.24939831 50.1328125 33.875 C50.13474609 35.35226562 50.13474609 35.35226562 50.13671875 36.859375 C50.13285156 37.89578125 50.12898438 38.9321875 50.125 40 C50.13080078 41.55460938 50.13080078 41.55460938 50.13671875 43.140625 C50.13542969 44.12546875 50.13414062 45.1103125 50.1328125 46.125 C50.13168457 47.03507813 50.13055664 47.94515625 50.12939453 48.8828125 C50 51 50 51 49 52 C47.49581261 52.09311889 45.98728644 52.11746028 44.48022461 52.11352539 C43.03884377 52.11341209 43.03884377 52.11341209 41.56834412 52.11329651 C40.523564 52.10813522 39.47878387 52.10297394 38.40234375 52.09765625 C37.33834854 52.0962413 36.27435333 52.09482635 35.17811584 52.09336853 C31.76454917 52.08775064 28.351047 52.07519511 24.9375 52.0625 C22.62955824 52.05748731 20.32161545 52.052924 18.01367188 52.04882812 C12.34242574 52.0377754 6.67121747 52.02101987 1 52 C1 51.67 1 51.34 1 51 C16.51 51 32.02 51 48 51 C48 44.07 48 37.14 48 30 C32.16 29.67 16.32 29.34 0 29 C0 19.43 0 9.86 0 0 Z " fill="#011E0C" transform="translate(241,718)"/>
<path d="M0 0 C0.99 0.33 1.98 0.66 3 1 C3 20.14 3 39.28 3 59 C2.67 59 2.34 59 2 59 C0.22709321 51.68686942 -0.27127943 44.8126655 -0.1953125 37.3046875 C-0.1924826 36.23123077 -0.18965271 35.15777405 -0.18673706 34.05178833 C-0.17563822 30.65940695 -0.15055314 27.26730013 -0.125 23.875 C-0.11495688 21.55989968 -0.10583338 19.24479517 -0.09765625 16.9296875 C-0.07573273 11.28636636 -0.04235932 5.6432028 0 0 Z " fill="#A4D791" transform="translate(552,757)"/>
<path d="M0 0 C1.134375 0.020625 2.26875 0.04125 3.4375 0.0625 C0.4375 2.0625 0.4375 2.0625 -2.5625 2.0625 C-2.55089844 3.25746094 -2.53929687 4.45242188 -2.52734375 5.68359375 C-2.4219527 21.36380573 -2.4219527 21.36380573 -3.5625 29.0625 C-3.8925 29.0625 -4.2225 29.0625 -4.5625 29.0625 C-4.58715881 25.09319011 -4.60534023 21.12390966 -4.61743164 17.15454102 C-4.62247057 15.80329614 -4.62930177 14.45205674 -4.63793945 13.10083008 C-4.65002419 11.16229566 -4.65519828 9.223722 -4.66015625 7.28515625 C-4.66539307 6.11734619 -4.67062988 4.94953613 -4.67602539 3.74633789 C-4.50310279 -0.34170118 -4.2325551 0.07425535 0 0 Z " fill="#6AD054" transform="translate(504.5625,303.9375)"/>
<path d="M0 0 C0.66 0 1.32 0 2 0 C1.34 4.95 0.68 9.9 0 15 C-2 11 -2 11 -2 8 C-2.66 8 -3.32 8 -4 8 C-4.66 9.98 -5.32 11.96 -6 14 C-7 11 -7 11 -6.07421875 9.0625 C-5.61660156 8.381875 -5.15898438 7.70125 -4.6875 7 C-4.23761719 6.319375 -3.78773438 5.63875 -3.32421875 4.9375 C-2.88722656 4.298125 -2.45023438 3.65875 -2 3 C-1.34 2.01 -0.68 1.02 0 0 Z " fill="#DEA03F" transform="translate(567,572)"/>
<path d="M0 0 C0.66 0.33 1.32 0.66 2 1 C1.01 1.33 0.02 1.66 -1 2 C-1.7118815 3.30975072 -2.37375407 4.64721094 -3 6 C-3.96342015 7.21736513 -4.9647468 8.40560455 -6 9.5625 C-7.87746278 11.66995197 -9.42221686 13.63332529 -11 16 C-10.84207033 9.68281329 -7.32493138 6.19272824 -3 2 C-2.01 1.34 -1.02 0.68 0 0 Z " fill="#421501" transform="translate(447,244)"/>
<path d="M0 0 C0.33 0 0.66 0 1 0 C1 5.61 1 11.22 1 17 C-2.465 15.02 -2.465 15.02 -6 13 C-5.34 12.67 -4.68 12.34 -4 12 C-3.01 12.33 -2.02 12.66 -1 13 C-0.67 8.71 -0.34 4.42 0 0 Z " fill="#64B645" transform="translate(283,624)"/>
<path d="M0 0 C0.99 0.33 1.98 0.66 3 1 C-1.75 5 -1.75 5 -4 5 C-4.33 6.32 -4.66 7.64 -5 9 C-4.01 9.33 -3.02 9.66 -2 10 C-3.32 10.33 -4.64 10.66 -6 11 C-5.75579333 6.76708435 -5.598306 4.62979579 -2.625 1.5 C-1.75875 1.005 -0.8925 0.51 0 0 Z " fill="#C66323" transform="translate(458,256)"/>
<path d="M0 0 C0.763125 0.350625 1.52625 0.70125 2.3125 1.0625 C5.04759379 2.32360884 5.04759379 2.32360884 8 1 C7.34 2.65 6.68 4.3 6 6 C5.01 6 4.02 6 3 6 C0 2.66666667 0 2.66666667 0 0 Z " fill="#C3EBA5" transform="translate(754,745)"/>
<path d="M0 0 C0.99 0.495 0.99 0.495 2 1 C2.44921875 2.99609375 2.44921875 2.99609375 2.6875 5.4375 C2.77386719 6.24058594 2.86023438 7.04367187 2.94921875 7.87109375 C3 10 3 10 2 12 C1.34 12 0.68 12 0 12 C0 8.04 0 4.08 0 0 Z " fill="#A7D492" transform="translate(519,727)"/>
<path d="M0 0 C1.62580966 0.11398665 3.25067157 0.24155659 4.875 0.375 C5.77992188 0.44460938 6.68484375 0.51421875 7.6171875 0.5859375 C10 1 10 1 12 3 C8.04 3 4.08 3 0 3 C0 2.01 0 1.02 0 0 Z " fill="#AC571B" transform="translate(394,341)"/>
<path d="M0 0 C0.66 0.33 1.32 0.66 2 1 C-0.31 3.64 -2.62 6.28 -5 9 C-5.99 8.67 -6.98 8.34 -8 8 C-5.36 5.36 -2.72 2.72 0 0 Z " fill="#2D1501" transform="translate(621,452)"/>
<path d="M0 0 C0 0.66 0 1.32 0 2 C-2.31 2 -4.62 2 -7 2 C-7 2.66 -7 3.32 -7 4 C-9.97 3.505 -9.97 3.505 -13 3 C-8.55314722 0.61775744 -5.04771183 -0.14021422 0 0 Z " fill="#452A13" transform="translate(655,438)"/>
<path d="M0 0 C1.32 0 2.64 0 4 0 C4 1.32 4 2.64 4 4 C4.66 4 5.32 4 6 4 C6.66 5.65 7.32 7.3 8 9 C4.36905358 6.35039045 2.10148204 3.98175544 0 0 Z " fill="#331A06" transform="translate(659,316)"/>
</svg>
